<?xml version="1.0" encoding="UTF-8"?>
<svg xmlns="http://www.w3.org/2000/svg" xmlns:xlink="http://www.w3.org/1999/xlink" width="13px" height="13px" viewBox="0 0 16 15" version="1.1">
<g id="surface1">
<path style=" stroke:none;fill-rule:monochromatic;fill:#6C707E;fill-opacity:1;" d="M 0.0234375 2 L 5.429688 2 L 5.429688 3.046875 L 1.136719 3.046875 L 1.136719 13.953125 L 0.0234375 13.953125 Z M 0.0234375 2 "/>
<path style=" stroke:none;fill-rule:monochromatic;fill:#6C707E;fill-opacity:1;" d="M 15.976562 12.960938 L 10.570312 12.960938 L 10.570312 11.914062 L 14.867188 11.914062 L 14.867188 1.046875 L 15.976562 1.046875 Z M 15.976562 12.960938 "/>
<path style=" stroke:none;fill-rule:monochromatic;fill:#6C707E;fill-opacity:1;" d="M 2.144531 15 L 2.144531 9.898438 L 3.253906 9.898438 L 3.253906 13.953125 L 14.867188 13.953125 L 14.867188 15 Z M 2.144531 15 "/>
<path style=" stroke:none;fill-rule:monochromatic;fill:#6C707E;fill-opacity:1;" d="M 13.804688 0 L 13.804688 5.101562 L 12.695312 5.101562 L 12.695312 1.046875 L 1.136719 1.046875 L 1.136719 0 Z M 13.804688 0 "/>
<path style=" stroke:none;fill-rule:monochromatic;fill:#6C707E;fill-opacity:1;" d="M 8.207031 3.453125 C 8.484375 4.21875 8.570312 5.046875 7.675781 5.386719 C 6.136719 5.96875 5.234375 4.230469 5.929688 3.210938 C 6.679688 2.136719 8.261719 2.070312 9.597656 2.679688 C 11.1875 3.398438 12.566406 4.929688 12.410156 6.222656 C 12.386719 6.421875 12.15625 6.601562 12.078125 6.453125 C 11.171875 4.734375 10.089844 3.644531 8.207031 3.453125 Z M 8.207031 3.453125 "/>
<path style=" stroke:none;fill-rule:monochromatic;fill:#6C707E;fill-opacity:1;" d="M 7.777344 11.640625 C 7.5 10.875 7.414062 10.042969 8.304688 9.707031 C 9.847656 9.125 10.75 10.859375 10.050781 11.882812 C 9.304688 12.953125 7.722656 13.023438 6.386719 12.414062 C 4.796875 11.691406 3.421875 10.160156 3.574219 8.871094 C 3.597656 8.671875 3.824219 8.488281 3.90625 8.636719 C 4.8125 10.355469 5.894531 11.445312 7.777344 11.640625 Z M 7.777344 11.640625 "/>
</g>
</svg>
