<?xml version="1.0" encoding="UTF-8"?>
<svg width="16" height="16" viewBox="0 0 16 16" xmlns="http://www.w3.org/2000/svg">
    <path id="Path" fill="#eee" fill-rule="evenodd" stroke="none" d="M 8.228267 2.734931 C 8.566401 3.725868 8.670934 4.800002 7.582933 5.236265 C 5.704533 5.990399 4.6016 3.742932 5.451734 2.420269 C 6.3648 1.0368 8.293333 0.945068 9.927466 1.732268 C 11.864533 2.665602 13.546667 4.646402 13.358933 6.317867 C 13.330133 6.574931 13.050667 6.811734 12.954666 6.619736 C 11.846399 4.394664 10.528 2.983466 8.228267 2.734931 Z"/>
    <path id="path1" fill="#eee" fill-rule="evenodd" stroke="none" d="M 7.704533 13.327997 C 7.3664 12.337067 7.261867 11.262932 8.349867 10.82667 C 10.228267 10.072535 11.331201 12.320003 10.481067 13.642666 C 9.568 15.026135 7.639467 15.117867 6.005333 14.330667 C 4.068267 13.397333 2.386133 11.416533 2.573867 9.745068 C 2.602667 9.487997 2.882133 9.2512 2.978133 9.443199 C 4.085333 11.668264 5.4048 13.079469 7.704533 13.327997 Z"/>
</svg>
